<?xml version="1.0" encoding="UTF-8"?>
<svg xmlns="http://www.w3.org/2000/svg" xmlns:xlink="http://www.w3.org/1999/xlink" viewBox="0 0 48 48" width="48px" height="48px">
<g id="surface79148702">
<path style=" stroke:none;fill-rule:nonzero;fill:rgb(100%,100%,100%);fill-opacity:1;" d="M 23.976562 3.980469 C 23.148438 3.992188 22.488281 4.671875 22.5 5.5 L 22.5 8.5 C 22.492188 9.039062 22.777344 9.542969 23.242188 9.816406 C 23.710938 10.089844 24.289062 10.089844 24.757812 9.816406 C 25.222656 9.542969 25.507812 9.039062 25.5 8.5 L 25.5 5.5 C 25.503906 5.09375 25.347656 4.703125 25.058594 4.417969 C 24.773438 4.128906 24.382812 3.972656 23.976562 3.980469 Z M 10.902344 9.402344 C 10.292969 9.40625 9.742188 9.773438 9.511719 10.339844 C 9.28125 10.90625 9.417969 11.554688 9.855469 11.980469 L 11.976562 14.101562 C 12.566406 14.6875 13.515625 14.6875 14.101562 14.101562 C 14.6875 13.515625 14.6875 12.566406 14.101562 11.976562 L 11.980469 9.855469 C 11.695312 9.566406 11.308594 9.402344 10.902344 9.402344 Z M 37.050781 9.402344 C 36.660156 9.414062 36.292969 9.578125 36.019531 9.859375 L 33.898438 11.980469 C 33.3125 12.566406 33.3125 13.515625 33.898438 14.101562 C 34.484375 14.6875 35.433594 14.6875 36.023438 14.101562 L 38.144531 11.980469 C 38.585938 11.550781 38.722656 10.890625 38.480469 10.316406 C 38.238281 9.746094 37.671875 9.386719 37.050781 9.40625 Z M 24 13 C 17.925781 13 13 17.925781 13 24 C 13 30.074219 17.925781 35 24 35 C 30.074219 35 35 30.074219 35 24 C 35 17.925781 30.074219 13 24 13 Z M 5.5 22.5 C 4.960938 22.492188 4.457031 22.777344 4.183594 23.242188 C 3.910156 23.710938 3.910156 24.289062 4.183594 24.757812 C 4.457031 25.222656 4.960938 25.507812 5.5 25.5 L 8.5 25.5 C 9.039062 25.507812 9.542969 25.222656 9.816406 24.757812 C 10.089844 24.289062 10.089844 23.710938 9.816406 23.242188 C 9.542969 22.777344 9.039062 22.492188 8.5 22.5 Z M 39.5 22.5 C 38.960938 22.492188 38.457031 22.777344 38.183594 23.242188 C 37.910156 23.710938 37.910156 24.289062 38.183594 24.757812 C 38.457031 25.222656 38.960938 25.507812 39.5 25.5 L 42.5 25.5 C 43.039062 25.507812 43.542969 25.222656 43.816406 24.757812 C 44.089844 24.289062 44.089844 23.710938 43.816406 23.242188 C 43.542969 22.777344 43.039062 22.492188 42.5 22.5 Z M 13.011719 33.445312 C 12.621094 33.457031 12.25 33.621094 11.980469 33.898438 L 9.859375 36.019531 C 9.476562 36.398438 9.328125 36.953125 9.46875 37.46875 C 9.605469 37.988281 10.011719 38.394531 10.53125 38.53125 C 11.046875 38.671875 11.601562 38.523438 11.980469 38.140625 L 14.101562 36.019531 C 14.546875 35.589844 14.679688 34.929688 14.4375 34.359375 C 14.195312 33.789062 13.628906 33.425781 13.007812 33.445312 Z M 34.941406 33.445312 C 34.332031 33.445312 33.78125 33.816406 33.554688 34.382812 C 33.324219 34.949219 33.460938 35.597656 33.898438 36.023438 L 36.019531 38.144531 C 36.605469 38.730469 37.554688 38.730469 38.140625 38.144531 C 38.730469 37.554688 38.730469 36.605469 38.140625 36.019531 L 36.019531 33.898438 C 35.738281 33.609375 35.347656 33.445312 34.941406 33.445312 Z M 23.976562 37.976562 C 23.148438 37.992188 22.488281 38.671875 22.5 39.5 L 22.5 42.5 C 22.492188 43.039062 22.777344 43.542969 23.242188 43.816406 C 23.710938 44.089844 24.289062 44.089844 24.757812 43.816406 C 25.222656 43.542969 25.507812 43.039062 25.5 42.5 L 25.5 39.5 C 25.503906 39.09375 25.347656 38.703125 25.058594 38.417969 C 24.773438 38.128906 24.382812 37.972656 23.976562 37.976562 Z M 23.976562 37.976562 "/>
</g>
</svg>
